<?xml version="1.0" standalone="no"?>
<!DOCTYPE svg PUBLIC "-//W3C//DTD SVG 20010904//EN"
 "http://www.w3.org/TR/2001/REC-SVG-20010904/DTD/svg10.dtd">
<svg version="1.0" xmlns="http://www.w3.org/2000/svg"
 width="512.000000pt" height="512.000000pt" viewBox="0 0 512.000000 512.000000"
 preserveAspectRatio="xMidYMid meet">

<g transform="translate(0.000000,512.000000) scale(0.100000,-0.100000)"
fill="#000000" stroke="none">
<path d="M1966 5099 l-26 -20 0 -1855 0 -1854 -675 0 -675 0 -2 806 -3 806
-28 24 c-28 24 -29 24 -268 24 l-240 0 -24 -25 -25 -24 0 -1466 0 -1466 25
-24 24 -25 240 0 c239 0 240 0 268 24 l28 24 3 366 3 366 674 0 675 0 0 -68 0
-67 -251 -250 c-138 -138 -257 -263 -265 -279 -28 -52 11 -116 70 -116 26 0
59 29 231 200 110 110 204 200 208 200 4 0 7 -81 7 -179 l0 -180 26 -20 c35
-28 67 -26 101 3 l28 24 3 177 4 178 202 -202 c173 -172 206 -201 232 -201 59
0 98 64 70 116 -8 16 -125 139 -260 274 l-246 245 0 72 0 73 1215 0 1214 0 3
-366 3 -366 28 -24 c28 -24 29 -24 268 -24 l240 0 24 25 25 24 0 818 c0 878 0
875 -51 975 -52 102 -175 193 -292 218 -36 7 -427 10 -1282 8 -1190 -3 -1231
-4 -1275 -22 -25 -11 -62 -30 -82 -43 l-38 -23 0 1385 0 1385 280 0 281 0 -3
-77 -3 -78 -93 -5 c-78 -4 -96 -8 -108 -24 -11 -16 -14 -78 -14 -330 0 -305 1
-312 24 -361 34 -73 69 -110 138 -144 49 -25 74 -31 126 -31 130 0 214 51 272
164 l35 69 3 264 c6 393 6 393 -132 393 l-84 0 -4 136 c-3 135 -3 136 -31 160
l-28 24 -328 0 -328 0 -5 82 c-4 73 -8 84 -32 105 -34 28 -65 29 -100 2z m914
-876 c-1 -254 -6 -287 -54 -330 -32 -29 -42 -33 -92 -33 -52 0 -59 3 -95 39
l-39 39 0 246 0 246 140 0 140 0 0 -207z m-2450 -2162 l0 -810 26 -20 27 -21
2238 0 2239 0 0 -525 0 -525 -135 0 -135 0 0 370 c0 357 -1 371 -20 390 -20
20 -33 20 -2110 20 -2077 0 -2090 0 -2110 -20 -19 -19 -20 -33 -20 -390 l0
-370 -135 0 -135 0 0 1355 0 1355 135 0 135 0 0 -809z m4332 -161 c63 -18 129
-70 162 -130 31 -55 31 -56 34 -227 l4 -173 -1431 0 -1431 0 0 168 c0 154 2
171 24 218 27 58 91 117 150 138 35 12 217 15 1246 15 792 1 1218 -3 1242 -9z"/>
<path d="M1135 2451 c-225 -64 -385 -276 -385 -509 1 -329 313 -585 630 -518
224 47 390 222 422 445 39 267 -148 536 -410 590 -76 16 -187 12 -257 -8z
m252 -156 c160 -48 275 -216 260 -382 -9 -90 -48 -172 -111 -232 -64 -60 -113
-85 -194 -101 -231 -46 -447 151 -430 390 17 234 249 392 475 325z"/>
</g>
</svg>
