<?xml version="1.0" standalone="no"?>
<!DOCTYPE svg PUBLIC "-//W3C//DTD SVG 20010904//EN"
 "http://www.w3.org/TR/2001/REC-SVG-20010904/DTD/svg10.dtd">
<svg version="1.0" xmlns="http://www.w3.org/2000/svg"
 width="512.000000pt" height="512.000000pt" viewBox="0 0 512.000000 512.000000"
 preserveAspectRatio="xMidYMid meet">

<g transform="translate(0.000000,512.000000) scale(0.100000,-0.100000)"
fill="#000000" stroke="none">
<path d="M1280 4285 c-685 -342 -1252 -630 -1259 -639 -7 -8 -15 -32 -18 -53
-4 -29 0 -44 17 -66 17 -21 358 -196 1271 -653 687 -343 1258 -624 1269 -624
11 0 582 281 1269 624 913 457 1254 632 1271 653 17 22 21 37 17 66 -3 21 -11
45 -18 53 -7 9 -575 297 -1261 640 -909 454 -1257 624 -1280 623 -23 0 -424
-196 -1278 -624z m2390 -140 c611 -305 1110 -557 1110 -560 0 -3 -499 -255
-1110 -560 l-1110 -555 -1110 555 c-611 305 -1110 557 -1110 560 0 4 2204
1112 2218 1114 1 1 502 -249 1112 -554z"/>
<path d="M330 2790 c-312 -156 -330 -169 -330 -230 0 -67 -46 -42 1280 -705
817 -408 1260 -625 1280 -625 20 0 463 217 1280 625 1326 663 1280 638 1280
705 0 61 -18 74 -330 230 -305 152 -342 166 -391 140 -24 -13 -49 -61 -49 -94
0 -47 43 -79 239 -176 105 -52 191 -97 191 -100 0 -3 -499 -255 -1110 -560
l-1110 -555 -1110 555 c-611 305 -1110 557 -1110 560 0 3 86 48 191 100 196
97 239 129 239 176 0 33 -25 81 -49 94 -49 26 -86 12 -391 -140z"/>
<path d="M342 1771 c-327 -163 -348 -178 -339 -244 3 -21 11 -45 18 -53 23
-28 2506 -1264 2539 -1264 33 0 2516 1236 2539 1264 7 8 15 32 18 53 4 29 0
44 -17 66 -29 36 -607 327 -650 327 -39 0 -88 -43 -96 -84 -12 -69 7 -86 226
-196 110 -55 200 -103 200 -105 0 -3 -499 -255 -1110 -560 l-1110 -555 -1110
555 c-611 305 -1110 557 -1110 560 0 2 90 50 200 105 219 110 238 127 226 196
-8 41 -57 84 -96 84 -17 0 -152 -61 -328 -149z"/>
</g>
</svg>
