<?xml version="1.0" standalone="no"?>
<!DOCTYPE svg PUBLIC "-//W3C//DTD SVG 20010904//EN"
 "http://www.w3.org/TR/2001/REC-SVG-20010904/DTD/svg10.dtd">
<svg version="1.0" xmlns="http://www.w3.org/2000/svg"
 width="512.000000pt" height="512.000000pt" viewBox="0 0 512.000000 512.000000"
 preserveAspectRatio="xMidYMid meet">

<g transform="translate(0.000000,512.000000) scale(0.100000,-0.100000)"
fill="#000000" stroke="none">
<path d="M3293 5110 c-363 -66 -632 -370 -650 -735 -11 -223 58 -417 205 -576
152 -164 354 -252 582 -251 135 0 219 20 349 83 91 44 116 63 196 142 156 155
223 307 232 523 8 177 -26 313 -115 453 -104 166 -280 296 -467 346 -73 19
-260 28 -332 15z"/>
<path d="M2074 3212 c-293 -389 -539 -722 -548 -739 -45 -89 -25 -194 49 -262
70 -64 159 -77 240 -34 19 10 325 286 680 613 355 327 662 609 682 626 l36 31
-68 22 c-208 68 -404 225 -505 409 -13 23 -26 42 -29 42 -3 0 -245 -319 -537
-708z"/>
<path d="M1348 2237 c-31 -62 -81 -143 -113 -182 -130 -158 -242 -353 -297
-520 -19 -58 -23 -91 -23 -195 0 -118 2 -128 31 -190 79 -168 245 -270 440
-270 140 0 339 69 518 179 88 54 192 133 326 246 184 155 400 284 570 341 74
25 100 29 200 29 144 0 195 -19 272 -104 63 -69 89 -127 95 -211 9 -119 -26
-237 -120 -401 -98 -172 -329 -443 -530 -620 -160 -141 -176 -159 -183 -195
-17 -94 82 -172 165 -130 50 26 225 182 362 322 346 356 533 680 547 951 10
197 -38 325 -172 459 -131 131 -245 178 -431 176 -277 -2 -592 -150 -946 -445
-171 -143 -266 -209 -394 -272 -133 -66 -217 -89 -300 -83 -168 14 -247 136
-204 316 27 110 134 304 248 448 55 70 57 71 151 103 162 56 152 47 94 81 -72
41 -175 145 -215 217 l-35 62 -56 -112z"/>
</g>
</svg>
