<?xml version="1.0" standalone="yes"?>
<svg xmlns="http://www.w3.org/2000/svg" width="512" height="512">
<path style="fill:#ffffff; stroke:none;" d="M0 0L0 229L1 229C1.01795 201.893 10.5272 173.382 21.6914 149C78.6662 24.569 231.622 -29.9189 354 31.2701C424.388 66.4639 474.127 135.581 486.562 213C490.587 238.063 487.207 262.013 487 287C460.758 276.016 437.321 264.464 409 258.8C396.368 256.274 382.88 252.95 372.301 262.67C362.204 271.947 363 286.459 363 299L363 380C349.992 379.732 338.212 379.768 326 385.312C284.948 403.951 275.254 453.114 299 489C192.024 516.677 79.0757 458.841 27.6914 364C13.0704 337.014 1.02056 303.041 1 272L0 272L0 512L512 512L512 354L511 354C508.041 375.954 490.208 399.889 473 413C470.468 399.981 479.306 385.815 477.826 372C474.411 340.121 439.425 333 413 333L413 413C413 429.339 413.461 446.977 409.985 463C408.1 471.693 403.948 479.484 397.91 486C358.139 528.918 284.254 493.942 297.015 435C298.916 426.217 303.192 417.887 308.924 411.004C315.43 403.191 323.57 397.262 333 393.453C346.974 387.809 358.769 390.759 373 392L373 305C373 294.05 370.502 278.658 379.188 270.214C388.575 261.089 407.08 268.524 418 271.116C449.91 278.689 505.232 295.52 511 334L512 334L512 0L0 0z"/>
<path style="fill:#010101; stroke:none;" d="M299 489C292.484 475.06 285.923 463.931 285.71 448C285.125 404.243 323.538 379.673 363 380L363 294C363.001 279.798 365.604 264.772 380 258.188C389.885 253.667 400.95 257.386 411 259.4C428.736 262.953 446.364 268.308 463 275.427C471.107 278.897 478.541 284.558 487 287C487.372 268.975 490.155 251.172 488.91 233C486.177 193.085 473.508 152.642 451.655 119C425.42 78.6119 389.528 47.6237 346 27.2199C309.547 10.1326 271.618 5.99496 232 6C195.987 6.00458 157.113 17.7816 126 35.5787C34.7379 87.7821 -15.3559 191.06 3.42438 295C23.7486 407.485 125.13 495 240 495C259.358 495 280.427 495.289 299 489z"/>
<path style="fill:#ffffff; stroke:none;" d="M42 146C71.3369 162.695 106.509 174.782 138 187C143.173 169.043 161.388 150.858 178 143L165.306 119L129 54C118.743 55.8285 109.207 63.6883 101 69.7346C77.1259 87.324 50.425 116.755 42 146M233 147.428C217.176 149.694 202.517 154.829 189 163.436C178.446 170.156 168.785 179.661 161.746 190C112.794 261.909 174.33 358.983 260 346.572C273.466 344.621 286.442 339.51 298 332.388C372.43 286.53 352.402 168.266 267 149.424C256.057 147.01 244.165 145.83 233 147.428z"/>
<path style="fill:#010101; stroke:none;" d="M239 223.638C213.853 230.907 227.07 269.129 252 261.695C276.622 254.353 263.963 216.423 239 223.638M373 392C354.556 389.288 338.714 388.115 322 398.468C291.443 417.395 287.103 462.24 311.09 487.999C337.807 516.691 389.897 510.883 406.688 474C412.319 461.629 410.927 449.056 412.17 436C415.392 402.136 413 367.038 413 333C439.732 333 475.535 341.574 477.91 374C478.837 386.662 469.758 401.205 473 413C482.201 408.227 488.87 398.232 494.848 390C500.288 382.51 504.891 374.671 508.186 366C526.896 316.758 478.466 289.809 439 276.667C425.22 272.078 410.43 268.164 396 266.289C389.409 265.433 382.104 265.558 377.558 271.105C370.351 279.898 373 295.452 373 306L373 392M423 343L423 418C436.236 406.549 447.015 390.076 455.716 375C458.235 370.636 464.243 363.339 461.778 358.04C455.903 345.415 434.45 345.127 423 343z"/>
</svg>
