<?xml version="1.0" standalone="no"?>
<!DOCTYPE svg PUBLIC "-//W3C//DTD SVG 20010904//EN"
 "http://www.w3.org/TR/2001/REC-SVG-20010904/DTD/svg10.dtd">
<svg version="1.0" xmlns="http://www.w3.org/2000/svg"
 width="80.000000pt" height="80.000000pt" viewBox="0 0 80.000000 80.000000"
 preserveAspectRatio="xMidYMid meet">

<g transform="translate(0.000000,80.000000) scale(0.100000,-0.100000)"
fill="#000000" stroke="none">
<path d="M343 700 c-57 -13 -203 -115 -203 -141 0 -5 9 -22 20 -37 19 -25 26
-91 21 -190 -1 -13 7 -35 18 -48 10 -13 22 -40 25 -59 9 -47 68 -105 129 -126
43 -15 51 -15 94 0 61 21 120 79 129 126 3 19 15 46 25 59 11 13 19 35 19 48
-1 12 -1 37 -2 53 0 17 1 62 3 102 4 82 -12 115 -70 145 -18 9 -41 24 -51 33
-20 18 -86 44 -110 44 -8 -1 -29 -4 -47 -9z m145 -42 c15 -14 40 -28 55 -32
57 -13 82 -112 58 -221 -7 -29 -7 -29 -14 14 -10 55 -21 77 -52 97 -23 15 -27
15 -59 -5 -20 -13 -65 -25 -112 -31 -88 -11 -120 -28 -139 -73 -15 -36 -20
-29 -29 48 -3 28 -15 62 -26 77 l-20 27 48 42 c72 64 135 91 205 86 44 -2 63
-9 85 -29z m56 -169 c20 -24 26 -41 26 -80 0 -43 3 -49 21 -49 16 0 20 -5 17
-27 -3 -26 -6 -28 -43 -26 -52 3 -278 3 -330 0 -37 -2 -40 0 -43 26 -3 22 1
27 17 27 16 0 21 6 21 24 0 39 50 74 117 81 78 8 128 22 143 40 18 21 25 19
54 -16z m-11 -195 c31 -6 37 -11 37 -31 0 -63 -57 -128 -133 -153 -91 -29
-207 58 -207 155 0 18 6 25 28 28 45 7 234 7 275 1z"/>
<path d="M304 369 c-10 -17 13 -36 27 -22 12 12 4 33 -11 33 -5 0 -12 -5 -16
-11z"/>
<path d="M464 369 c-10 -17 13 -36 27 -22 12 12 4 33 -11 33 -5 0 -12 -5 -16
-11z"/>
</g>
</svg>
