<?xml version="1.0" standalone="no"?>
<!DOCTYPE svg PUBLIC "-//W3C//DTD SVG 20010904//EN"
 "http://www.w3.org/TR/2001/REC-SVG-20010904/DTD/svg10.dtd">
<svg version="1.0" xmlns="http://www.w3.org/2000/svg"
 width="512.000000pt" height="512.000000pt" viewBox="0 0 512.000000 512.000000"
 preserveAspectRatio="xMidYMid meet">

<g transform="translate(0.000000,512.000000) scale(0.100000,-0.100000)"
fill="#000000" stroke="none">
<path d="M2500 5111 c-14 -5 -470 -194 -1015 -420 -775 -322 -997 -419 -1022
-443 -67 -64 -65 -45 -60 -764 4 -671 8 -739 52 -974 127 -670 449 -1283 928
-1761 287 -288 607 -509 992 -687 107 -49 127 -56 185 -56 58 0 79 7 188 57
1125 514 1866 1575 1962 2811 5 71 10 386 10 700 0 534 -2 574 -19 611 -10 22
-32 52 -48 67 -20 19 -338 156 -1028 444 -1021 424 -1059 438 -1125 415z m945
-774 l870 -362 -1 -560 c0 -530 -1 -568 -23 -705 -12 -80 -33 -192 -46 -250
-200 -870 -782 -1604 -1584 -1995 l-102 -50 -132 67 c-810 409 -1387 1161
-1567 2040 -51 250 -55 318 -55 903 l0 549 870 362 c479 200 877 363 885 363
8 0 407 -163 885 -362z"/>
<path d="M3260 3344 c-22 -9 -201 -180 -477 -457 l-443 -441 -222 220 c-181
180 -232 224 -270 239 -152 57 -301 -85 -258 -245 11 -40 46 -79 313 -348 166
-167 318 -313 337 -325 45 -28 139 -30 190 -4 20 9 272 255 561 545 486 487
527 531 539 574 44 165 -116 309 -270 242z"/>
</g>
</svg>
